<mxfile host="app.diagrams.net" modified="2021-08-12T16:38:24.455Z" agent="5.0 (Windows NT 10.0; Win64; x64) AppleWebKit/537.36 (KHTML, like Gecko) Chrome/90.0.4430.212 Safari/537.36" etag="nDdHvxRlueq--LY2_Dal" version="14.9.6" type="github">
  <diagram id="4qVWz2roZ80YpUi0T1Ma" name="第 1 页">
    <mxGraphModel dx="1422" dy="802" grid="1" gridSize="10" guides="1" tooltips="1" connect="1" arrows="1" fold="1" page="1" pageScale="1" pageWidth="827" pageHeight="1169" math="0" shadow="0">
      <root>
        <mxCell id="0" />
        <mxCell id="1" parent="0" />
        <mxCell id="7OGJqD9fNV7hJ2rKbKHN-11" style="edgeStyle=orthogonalEdgeStyle;rounded=0;orthogonalLoop=1;jettySize=auto;html=1;" edge="1" parent="1" source="7OGJqD9fNV7hJ2rKbKHN-1" target="7OGJqD9fNV7hJ2rKbKHN-6">
          <mxGeometry relative="1" as="geometry" />
        </mxCell>
        <mxCell id="7OGJqD9fNV7hJ2rKbKHN-12" style="edgeStyle=orthogonalEdgeStyle;rounded=0;orthogonalLoop=1;jettySize=auto;html=1;entryX=0.5;entryY=0;entryDx=0;entryDy=0;" edge="1" parent="1" source="7OGJqD9fNV7hJ2rKbKHN-1" target="7OGJqD9fNV7hJ2rKbKHN-7">
          <mxGeometry relative="1" as="geometry" />
        </mxCell>
        <mxCell id="7OGJqD9fNV7hJ2rKbKHN-1" value="h3" style="rounded=0;whiteSpace=wrap;html=1;" vertex="1" parent="1">
          <mxGeometry x="360" y="100" width="120" height="40" as="geometry" />
        </mxCell>
        <mxCell id="7OGJqD9fNV7hJ2rKbKHN-14" value="" style="edgeStyle=orthogonalEdgeStyle;rounded=0;orthogonalLoop=1;jettySize=auto;html=1;" edge="1" parent="1" source="7OGJqD9fNV7hJ2rKbKHN-6" target="7OGJqD9fNV7hJ2rKbKHN-13">
          <mxGeometry relative="1" as="geometry" />
        </mxCell>
        <mxCell id="7OGJqD9fNV7hJ2rKbKHN-21" style="edgeStyle=orthogonalEdgeStyle;rounded=0;orthogonalLoop=1;jettySize=auto;html=1;entryX=1;entryY=0.5;entryDx=0;entryDy=0;" edge="1" parent="1" source="7OGJqD9fNV7hJ2rKbKHN-6" target="7OGJqD9fNV7hJ2rKbKHN-20">
          <mxGeometry relative="1" as="geometry" />
        </mxCell>
        <mxCell id="7OGJqD9fNV7hJ2rKbKHN-6" value="BO/运营" style="rounded=0;whiteSpace=wrap;html=1;" vertex="1" parent="1">
          <mxGeometry x="240" y="210" width="120" height="60" as="geometry" />
        </mxCell>
        <mxCell id="7OGJqD9fNV7hJ2rKbKHN-16" value="" style="edgeStyle=orthogonalEdgeStyle;rounded=0;orthogonalLoop=1;jettySize=auto;html=1;" edge="1" parent="1" source="7OGJqD9fNV7hJ2rKbKHN-7" target="7OGJqD9fNV7hJ2rKbKHN-15">
          <mxGeometry relative="1" as="geometry" />
        </mxCell>
        <mxCell id="7OGJqD9fNV7hJ2rKbKHN-7" value="客户端/user" style="rounded=0;whiteSpace=wrap;html=1;" vertex="1" parent="1">
          <mxGeometry x="480" y="210" width="120" height="60" as="geometry" />
        </mxCell>
        <mxCell id="7OGJqD9fNV7hJ2rKbKHN-13" value="车辆调度分析" style="rounded=0;whiteSpace=wrap;html=1;" vertex="1" parent="1">
          <mxGeometry x="40" y="170" width="120" height="60" as="geometry" />
        </mxCell>
        <mxCell id="7OGJqD9fNV7hJ2rKbKHN-15" value="拼单？订单连结？" style="rounded=0;whiteSpace=wrap;html=1;" vertex="1" parent="1">
          <mxGeometry x="480" y="330" width="120" height="60" as="geometry" />
        </mxCell>
        <mxCell id="7OGJqD9fNV7hJ2rKbKHN-20" value="客户分布分析" style="rounded=0;whiteSpace=wrap;html=1;" vertex="1" parent="1">
          <mxGeometry x="40" y="250" width="120" height="60" as="geometry" />
        </mxCell>
      </root>
    </mxGraphModel>
  </diagram>
</mxfile>
